<svg width="111" height="23" viewBox="0 0 111 23" fill="none" xmlns="http://www.w3.org/2000/svg">
<path d="M0.104 1.264H3.752V22H0.104V1.264ZM20.1238 22.384C18.3531 22.384 16.7531 22.1493 15.3238 21.68C13.8944 21.2107 12.6678 20.528 11.6438 19.632C10.6411 18.7147 9.86242 17.5947 9.30775 16.272C8.77442 14.9493 8.50775 13.456 8.50775 11.792C8.50775 10.1067 8.79575 8.592 9.37175 7.248C9.94775 5.904 10.7691 4.76267 11.8358 3.824C12.9024 2.864 14.1718 2.13867 15.6438 1.648C17.1158 1.136 18.7371 0.879999 20.5078 0.879999C22.5771 0.879999 24.3691 1.2 25.8838 1.84C27.3984 2.48 28.6038 3.376 29.4998 4.528C30.3958 5.65867 30.9078 7.00267 31.0358 8.56H27.6758C27.3984 7.64267 26.9398 6.85333 26.2998 6.192C25.6811 5.53067 24.8811 5.01867 23.8998 4.656C22.9398 4.272 21.8091 4.08 20.5078 4.08C18.8011 4.08 17.3184 4.41067 16.0598 5.072C14.8224 5.712 13.8731 6.61867 13.2118 7.792C12.5504 8.944 12.2198 10.2773 12.2198 11.792C12.2198 13.3067 12.5078 14.6187 13.0838 15.728C13.6811 16.816 14.5771 17.6693 15.7718 18.288C16.9664 18.8853 18.4491 19.184 20.2198 19.184C21.5851 19.184 22.7798 18.9813 23.8038 18.576C24.8491 18.1493 25.7131 17.5627 26.3958 16.816C27.0784 16.0693 27.5584 15.2053 27.8358 14.224L29.4678 13.84C29.1691 16.592 28.1878 18.704 26.5238 20.176C24.8811 21.648 22.7478 22.384 20.1238 22.384ZM28.6038 22C28.6038 21.3173 28.6358 20.5493 28.6998 19.696C28.7638 18.8213 28.8384 17.936 28.9238 17.04C29.0304 16.1227 29.1264 15.3013 29.2118 14.576H20.6358V11.952H31.8358V22H28.6038ZM39.1885 17.136V14.032H51.5405V17.136H39.1885ZM34.3885 22L43.4445 1.264H47.3485L56.4685 22H52.5325L44.5965 3.28H46.1965L38.2925 22H34.3885ZM74.1505 20.112H72.5185L83.5265 1.264H87.1425V22H83.5265V6.48L84.3585 6.704L75.3345 22H71.3665L62.3425 6.768L63.2065 6.512V22H59.5585V1.264H63.2065L74.1505 20.112ZM95.769 13.168V18.864H110.329V22H92.121V1.264H110.297V4.4H95.769V10.16H107.673V13.168H95.769Z" fill="#EEEEEE"/>
</svg>
