<svg width="188" height="41" viewBox="0 0 188 41" fill="none" xmlns="http://www.w3.org/2000/svg">
<g clip-path="url(#clip0_306_1596)">
<path d="M187.522 18.5961V15.3027H183.433V10.1828L183.295 10.2252L179.454 11.4005L179.378 11.4235V15.3029H173.315V13.1417C173.315 12.1354 173.54 11.3653 173.983 10.8518C174.424 10.3444 175.054 10.0864 175.857 10.0864C176.435 10.0864 177.033 10.2224 177.634 10.4907L177.785 10.5581V7.08977L177.714 7.06368C177.153 6.86188 176.389 6.76025 175.443 6.76025C174.25 6.76025 173.166 7.01985 172.221 7.53432C171.275 8.04952 170.531 8.785 170.01 9.72011C169.49 10.6541 169.227 11.7329 169.227 12.9267V15.3027H166.379V18.5961H169.227V32.4704H173.315V18.5961H179.378V27.4129C179.378 31.0441 181.091 32.8843 184.469 32.8843C185.024 32.8843 185.608 32.8193 186.204 32.6919C186.812 32.5611 187.225 32.4305 187.469 32.291L187.523 32.2591V28.9353L187.356 29.0453C187.134 29.1931 186.858 29.314 186.534 29.4038C186.209 29.4953 185.937 29.5411 185.727 29.5411C184.935 29.5411 184.35 29.3279 183.987 28.9071C183.619 28.4825 183.433 27.7399 183.433 26.7012V18.5961H187.522ZM157.25 29.5417C155.766 29.5417 154.596 29.0497 153.772 28.0805C152.942 27.1064 152.522 25.7177 152.522 23.9533C152.522 22.1329 152.942 20.7081 153.772 19.7168C154.597 18.7321 155.756 18.2323 157.216 18.2323C158.634 18.2323 159.762 18.7096 160.571 19.6518C161.383 20.5989 161.795 22.0122 161.795 23.8538C161.795 25.7181 161.408 27.1501 160.643 28.108C159.884 29.0587 158.742 29.5417 157.25 29.5417ZM157.431 14.8891C154.601 14.8891 152.352 15.7186 150.749 17.3546C149.147 18.9908 148.335 21.255 148.335 24.085C148.335 26.7729 149.127 28.935 150.691 30.5101C152.256 32.0858 154.384 32.8839 157.018 32.8839C159.762 32.8839 161.965 32.0428 163.568 30.3842C165.17 28.7274 165.982 26.4845 165.982 23.7207C165.982 20.9907 165.22 18.8125 163.717 17.2479C162.213 15.6826 160.098 14.8891 157.431 14.8891ZM141.743 14.8891C139.818 14.8891 138.225 15.3817 137.008 16.3528C135.784 17.3298 135.163 18.6111 135.163 20.1616C135.163 20.9675 135.297 21.6834 135.561 22.2907C135.826 22.8999 136.237 23.4363 136.782 23.8864C137.324 24.333 138.16 24.8007 139.267 25.2766C140.198 25.6597 140.893 25.9838 141.334 26.2393C141.765 26.4896 142.071 26.7412 142.244 26.9863C142.412 27.2262 142.497 27.5544 142.497 27.9595C142.497 29.1129 141.633 29.6741 139.856 29.6741C139.196 29.6741 138.444 29.5364 137.621 29.265C136.803 28.9978 136.031 28.6064 135.332 28.1046L135.162 27.9828V31.9188L135.225 31.9477C135.803 32.2148 136.532 32.4399 137.392 32.6171C138.25 32.7944 139.029 32.8847 139.707 32.8847C141.796 32.8847 143.479 32.3897 144.707 31.4128C145.942 30.4291 146.569 29.1176 146.569 27.5135C146.569 26.3563 146.232 25.3639 145.567 24.5636C144.907 23.7698 143.762 23.041 142.164 22.3968C140.891 21.886 140.076 21.4619 139.74 21.1364C139.415 20.8219 139.251 20.3771 139.251 19.8139C139.251 19.3147 139.454 18.9147 139.871 18.5908C140.292 18.2653 140.877 18.0997 141.611 18.0997C142.292 18.0997 142.989 18.2073 143.682 18.4182C144.375 18.629 144.983 18.9114 145.491 19.2569L145.658 19.371V15.6375L145.593 15.6099C145.125 15.409 144.507 15.2371 143.757 15.0976C143.01 14.959 142.333 14.8891 141.743 14.8891ZM124.505 29.5417C123.022 29.5417 121.852 29.0497 121.027 28.0805C120.198 27.1064 119.778 25.7181 119.778 23.9533C119.778 22.1329 120.198 20.7081 121.028 19.7168C121.853 18.7321 123.011 18.2323 124.473 18.2323C125.89 18.2323 127.018 18.7096 127.826 19.6518C128.639 20.5989 129.051 22.0122 129.051 23.8538C129.051 25.7181 128.663 27.1501 127.899 28.108C127.139 29.0587 125.998 29.5417 124.505 29.5417ZM124.688 14.8891C121.856 14.8891 119.607 15.7186 118.005 17.3546C116.403 18.9908 115.59 21.255 115.59 24.085C115.59 26.774 116.384 28.935 117.948 30.5101C119.512 32.0858 121.64 32.8839 124.273 32.8839C127.017 32.8839 129.221 32.0428 130.824 30.3842C132.426 28.7274 133.238 26.4845 133.238 23.7207C133.238 20.9907 132.476 18.8125 130.973 17.2479C129.469 15.6826 127.354 14.8891 124.688 14.8891ZM109.385 18.2758V15.3027H105.346V32.47H109.385V23.6883C109.385 22.195 109.723 20.9682 110.391 20.0417C111.051 19.1261 111.93 18.6622 113.003 18.6622C113.367 18.6622 113.775 18.7221 114.217 18.8408C114.655 18.9587 114.972 19.0868 115.159 19.2216L115.328 19.3446V15.2733L115.263 15.2453C114.887 15.0855 114.355 15.0049 113.682 15.0049C112.667 15.0049 111.759 15.331 110.981 15.973C110.298 16.5373 109.805 17.311 109.427 18.2758H109.385ZM98.1144 14.8891C96.2618 14.8891 94.6093 15.2864 93.2038 16.0695C91.7953 16.8544 90.706 17.9751 89.9649 19.4C89.2271 20.8215 88.8525 22.482 88.8525 24.3337C88.8525 25.9557 89.2157 27.4443 89.9336 28.7562C90.6519 30.0703 91.6685 31.0983 92.9554 31.8113C94.2405 32.5234 95.7258 32.8845 97.3703 32.8845C99.2894 32.8845 100.928 32.5008 102.242 31.7441L102.295 31.7137V28.014L102.125 28.1379C101.53 28.5714 100.865 28.9174 100.149 29.1667C99.4356 29.4158 98.7849 29.5417 98.2143 29.5417C96.6297 29.5417 95.3577 29.0458 94.4343 28.0683C93.509 27.0896 93.0398 25.7152 93.0398 23.9857C93.0398 22.2454 93.5291 20.8356 94.4934 19.7955C95.4548 18.7584 96.7292 18.2323 98.2809 18.2323C99.6082 18.2323 100.902 18.6817 102.125 19.5694L102.295 19.6924V15.7942L102.24 15.7634C101.78 15.5056 101.151 15.2927 100.372 15.1313C99.5954 14.9703 98.836 14.8891 98.1144 14.8891ZM86.0712 15.3029H82.033V32.47H86.0712V15.3029ZM84.0934 7.98956C83.4288 7.98956 82.8491 8.21582 82.3728 8.66417C81.8946 9.11379 81.652 9.67989 81.652 10.348C81.652 11.0056 81.8917 11.5613 82.3654 11.999C82.836 12.4354 83.4175 12.6566 84.0936 12.6566C84.7695 12.6566 85.3531 12.4354 85.8294 11.9997C86.3087 11.5613 86.5518 11.0058 86.5518 10.348C86.5518 9.70326 86.3153 9.14296 85.8491 8.68228C85.3834 8.22252 84.7925 7.98956 84.0934 7.98956ZM74.0177 14.0363V32.47H78.1389V8.51508H72.435L65.1849 26.3081L58.1491 8.51508H52.2129V32.4698H56.0858V14.0344H56.2187L63.6483 32.47H66.5711L73.8847 14.0363H74.0177Z" fill="white"/>
<path d="M19.253 19.5074H0.255859V0.510254H19.253V19.5074Z" fill="#4F4F4F"/>
<path d="M40.2272 19.5074H21.2305V0.510254H40.2272V19.5074Z" fill="#575757"/>
<path d="M19.2524 40.4896H0.255859V21.4927H19.2524V40.4896Z" fill="#393939"/>
<path d="M40.2272 40.4896H21.2305V21.4927H40.2272V40.4896Z" fill="#3C3C3C"/>
</g>
<defs>
<clipPath id="clip0_306_1596">
<rect width="187.266" height="40" fill="white" transform="translate(0.255859 0.5)"/>
</clipPath>
</defs>
</svg>
