<svg width="79" height="41" viewBox="0 0 79 41" fill="none" xmlns="http://www.w3.org/2000/svg">
<g clip-path="url(#clip0_306_1628)">
<path d="M1.89095 2.69965L2.92186 1.68189C4.50182 0.138941 7.07963 0.237424 8.52659 1.8954L22.796 18.3095C24.0434 19.7374 24.0268 21.8549 22.7628 23.2666L8.54335 39.1717C7.07978 40.7967 4.53518 40.8787 2.97198 39.3359L1.94077 38.3181C0.543778 36.9393 0.443992 34.7398 1.70799 33.2297L10.2231 23.1514C11.3873 21.7726 11.4039 19.7864 10.2731 18.3749L1.62481 7.70576C0.394024 6.22866 0.510567 4.06203 1.89095 2.6998V2.69965Z" fill="#444444"/>
<path fill-rule="evenodd" clip-rule="evenodd" d="M30.1145 32.7537H26.805V13.7625H30.1145V15.7488C30.5802 14.4192 32.2599 13.4671 34.555 13.4671C36.5175 13.4671 38.164 14.1565 39.4944 15.5352C40.8416 16.8976 41.5069 18.5884 41.5069 20.6237C41.5069 22.659 40.8416 24.3496 39.4944 25.7449C38.164 27.1073 36.5177 27.7802 34.555 27.7802C32.2599 27.7802 30.5804 26.8282 30.1145 25.4987V32.7537ZM29.865 20.6401C29.865 19.4418 30.2808 18.4242 31.0791 17.6363C31.9106 16.8485 32.942 16.438 34.1227 16.438C35.3035 16.438 36.2847 16.8485 37.0498 17.6363C37.8481 18.4406 38.2305 19.4418 38.2305 20.6401C38.2305 21.8383 37.8481 22.8559 37.0498 23.6438C36.2681 24.4317 35.3201 24.8421 34.1227 24.8421C32.9252 24.8421 31.9108 24.4318 31.0791 23.6439C30.2808 22.8395 29.865 21.8383 29.865 20.6401Z" fill="white"/>
<path d="M42.6544 8.51001H45.964V23.0037C45.964 24.3333 46.4131 24.9077 47.6272 24.9077C48.0095 24.9077 48.3423 24.8749 48.625 24.7928V27.7145C48.2426 27.8294 47.7103 27.8787 47.0451 27.8787C44.1179 27.8787 42.6545 26.4015 42.6545 23.4304L42.6544 8.51001Z" fill="white"/>
<path fill-rule="evenodd" clip-rule="evenodd" d="M59.8343 15.7486V13.7625H63.144V23.3483C63.144 24.5138 63.4267 24.957 64.1586 24.957C64.2854 24.957 64.4323 24.9438 64.5865 24.9299C64.675 24.9219 64.766 24.9137 64.8569 24.9077V27.5505C64.4912 27.6818 63.9423 27.7639 63.2272 27.7639C62.4289 27.7639 61.7968 27.6324 61.2979 27.3206C60.6826 26.9103 60.3 26.3685 60.167 25.6628C59.2024 27.1072 57.6058 27.813 55.394 27.813C53.4315 27.813 51.7849 27.14 50.4212 25.7449C49.0907 24.3496 48.4254 22.659 48.4254 20.6237C48.4254 18.5884 49.0907 16.8976 50.4212 15.5352C51.7683 14.1401 53.4315 13.4671 55.394 13.4671C57.6224 13.4671 59.3022 14.4519 59.8343 15.7486ZM60.0839 20.6237C60.0839 21.8219 59.6681 22.8395 58.8365 23.6274C58.0382 24.4153 57.0237 24.8257 55.8263 24.8257C54.6289 24.8257 53.6642 24.4153 52.866 23.6274C52.0843 22.8232 51.7018 21.8219 51.7018 20.6237C51.7018 19.4254 52.1009 18.4078 52.866 17.6199C53.6809 16.8321 54.6455 16.4216 55.8262 16.4216C57.0071 16.4216 58.0382 16.8321 58.8365 17.6199C59.668 18.424 60.0839 19.4254 60.0839 20.6237Z" fill="white"/>
<path fill-rule="evenodd" clip-rule="evenodd" d="M10.2071 23.1842L1.69202 33.2625C0.428019 34.7563 0.527804 36.9721 1.9248 38.3509L2.95586 39.3686C4.51921 40.9116 7.06381 40.8295 8.52738 39.2044L11.6041 35.7575C12.7683 33.4924 13.417 30.9317 13.417 28.2235C13.417 24.8751 12.4192 21.7726 10.7227 19.1629C11.3546 20.4432 11.1884 22.0351 10.2071 23.1842Z" fill="#333333"/>
<path d="M66.0046 30.2423C66.4205 30.3737 66.9358 30.4558 67.5513 30.4558C68.0834 30.4558 68.466 30.3408 68.7653 30.1602C69.0647 29.9798 69.3473 29.5529 69.5636 28.995L69.9295 28.0101L64.1085 13.7625H67.4348L71.5261 24.1198L75.3679 13.7625H78.7108L72.474 29.7337C72.0582 30.8006 71.5593 31.6212 70.9772 32.1794C70.1457 32.9344 69.0481 33.3284 67.6343 33.3284C67.019 33.3284 66.4703 33.2463 66.0046 33.1149V30.2423Z" fill="white"/>
</g>
<defs>
<clipPath id="clip0_306_1628">
<rect width="78" height="40" fill="white" transform="translate(0.744141 0.5)"/>
</clipPath>
</defs>
</svg>
