<svg width="265" height="41" viewBox="0 0 265 41" fill="none" xmlns="http://www.w3.org/2000/svg">
<g clip-path="url(#clip0_306_1618)">
<path fill-rule="evenodd" clip-rule="evenodd" d="M29.2419 8.90887L29.2074 40.3443L20.7305 37.6051V0.655762L31.5508 3.49811C38.477 5.34762 42.7155 8.94285 42.6466 15.2437C42.5777 22.5722 39.1663 25.5168 32.5156 23.5991V9.14809C32.5156 7.40163 29.2419 7.29938 29.2419 8.90887Z" fill="#424242"/>
<path fill-rule="evenodd" clip-rule="evenodd" d="M16.8366 31.509L12.8392 32.8448C10.2544 33.7353 8.04923 31.6465 10.427 30.79L12.3566 30.1056L5.08543 27.8108C2.84541 28.5645 0.743236 30.1739 0.881459 32.434C1.01931 34.7281 6.29147 35.2764 10.358 35.927C14.1484 36.5431 17.5944 36.2007 20.7307 35.1049V32.7419L16.8366 31.509ZM29.2767 40.3443L36.6856 37.7757L29.2078 35.4133V40.1727L29.2767 40.3443Z" fill="#414141"/>
<path fill-rule="evenodd" clip-rule="evenodd" d="M48.9887 33.4616L49.1264 33.4272C52.3656 32.2974 53.7441 30.7216 53.3997 29.2496C52.8483 26.7842 48.8854 25.4484 42.7858 25.0032C38.4095 24.6952 34.1021 25.6538 29.898 27.0918L29.2087 27.3318L36.7554 29.6604L41.1663 28.1877C45.7839 27.3318 47.6451 28.8384 43.1996 30.2425L40.994 30.9954L48.9887 33.4616ZM20.7317 22.5723L17.3887 23.7019L20.7317 24.7293V22.5723Z" fill="#2F2F2F"/>
<path fill-rule="evenodd" clip-rule="evenodd" d="M36.6859 37.7758L48.9881 33.4615L40.9933 30.9953L29.2081 35.0018V35.4133L36.6859 37.7758ZM20.7312 30.2077L16.8371 31.509L20.7312 32.7417V30.2077ZM29.2081 32.2287V27.3316L36.7549 29.6602L29.2081 32.2287ZM12.357 30.1056L20.731 27.1264V24.7293L17.3882 23.7019L5.25815 27.7769C5.22364 27.7769 5.15479 27.8107 5.08594 27.8107L12.357 30.1056Z" fill="#5F5F5F"/>
</g>
<g clip-path="url(#clip1_306_1618)">
<path d="M77.7441 4.54891V30.5025H81.8188V7.03639H85.5902C85.5902 7.03639 88.3304 7.03639 89.2685 8.25487C90.0656 9.28994 90.2112 11.1676 90.2112 12.4355C90.2112 13.7925 90.125 15.8894 89.6671 16.657C88.9722 17.8301 87.8313 18.0651 86.7881 18.0651H84.2986V20.3686H87.8787C87.8787 20.3686 91.1088 20.5026 92.498 19.0985C94.2013 17.377 94.6341 15.0627 94.6341 11.9642C94.6341 9.14913 93.6069 6.30905 91.5074 5.34438C89.7693 4.54948 86.6357 4.54948 86.6357 4.54948L77.7441 4.54891ZM97.8363 30.5031H101.91V4.54948H97.8363V30.5031ZM123.586 10.6027L131.041 30.0296L126.761 40.4519H130.143L142.467 10.6027H138.691L133.322 25.1511L128.328 10.6027H123.586ZM145.535 30.3487V27.8958C145.535 27.8958 149.844 28.0639 150.741 28.0639C152.729 28.0639 153.722 27.6426 154.47 26.8454C154.911 26.3673 155.31 24.25 155.31 23.4955C155.31 22.7437 155.164 21.1181 154.868 20.4521C154.563 19.7997 153.868 19.1905 152.828 19.1025C152.085 19.0389 150.938 18.8896 149.596 18.8282C147.714 18.7397 146.471 17.7636 145.872 17.0618C145.278 16.3595 144.482 15.3017 144.482 12.0653C144.482 8.82493 145.325 7.00857 146.17 6.16597C147.015 5.31883 148.252 4.9475 149.202 4.78C150.295 4.59433 152.08 4.58297 152.08 4.58297L157.783 4.7482V7.20105C157.783 7.20105 153.625 7.03582 152.73 7.03582C150.741 7.03582 150.144 7.45939 149.4 8.2543C148.96 8.72727 148.616 10.0366 148.616 10.7866C148.616 11.5401 148.705 13.0623 149.004 13.721C149.299 14.3739 149.997 14.9849 151.04 15.078C151.78 15.1348 152.93 15.2841 154.269 15.3448C156.159 15.4334 157.401 16.4072 157.993 17.1118C158.592 17.8159 159.389 19.2995 159.389 22.5331C159.389 25.774 158.539 28.0889 157.699 28.9337C156.852 29.7758 155.617 30.1522 154.668 30.3152C153.572 30.5025 151.787 30.5167 151.787 30.5167L145.535 30.3487ZM167.766 7.03526H163.694V26.0891C163.694 26.0891 163.791 27.8283 163.892 28.4398C163.992 29.0513 164.887 30.5031 167.221 30.5031L171.441 30.4213V27.9776C171.441 27.9776 170.298 28.0593 169.608 28.0593C168.909 28.0593 168.062 28.0139 167.918 26.8386C167.765 25.6655 167.765 24.2637 167.765 24.2637V13.0442H172.366V10.6027H167.765V7.03582L167.766 7.03526ZM207.085 30.5031H211.157V10.6038H207.085V30.5031ZM207.085 8.16118H211.157V4.54834H207.085V8.16118ZM224.03 10.4329C226.801 10.4329 228.952 11.049 230.106 11.9773C231.272 12.9085 232.704 14.8719 232.704 20.5537C232.704 26.2362 231.272 28.1973 230.106 29.1308C228.951 30.0591 226.801 30.6797 224.03 30.6797C221.251 30.6797 219.11 30.0591 217.947 29.1308C216.783 28.1973 215.357 26.2362 215.357 20.5537C215.357 14.8719 216.783 12.9079 217.947 11.9773C219.11 11.049 221.251 10.4329 224.03 10.4329ZM221.238 14.2484C220.677 14.9355 219.994 16.3777 219.994 20.5537C219.994 24.7281 220.677 26.1726 221.237 26.8562C221.796 27.5364 222.824 27.9958 224.157 27.9958C225.492 27.9958 226.517 27.5358 227.082 26.8568C227.64 26.1726 228.323 24.7276 228.323 20.5543C228.323 16.3777 227.64 14.9349 227.082 14.249C226.517 13.5677 225.492 13.1117 224.157 13.1117C222.825 13.1117 221.796 13.5671 221.237 14.249L221.238 14.2484ZM241.143 13.3973L245.138 13.2298C246.183 13.2298 247.413 13.5103 248.01 14.2626C248.565 14.9712 248.916 15.8161 248.916 17.1771V30.4804H252.995V16.8421C252.995 14.2626 252.196 12.7631 250.998 11.8211C249.289 10.4738 246.229 10.6027 246.229 10.6027L237.103 10.7656V30.4804H241.143V13.3973ZM198.972 7.03526H194.898V26.0891C194.898 26.0891 194.994 27.8283 195.092 28.4398C195.194 29.0513 196.082 30.5031 198.426 30.5031L202.646 30.4213V27.9776C202.646 27.9776 201.5 28.0593 200.808 28.0593C200.116 28.0593 199.266 28.0139 199.118 26.8386C198.972 25.6655 198.972 24.2637 198.972 24.2637V13.0442H203.561V10.6027H198.972L198.972 7.03526ZM117.371 17.1771C117.371 15.8161 117.023 14.9712 116.462 14.2626C115.865 13.5103 114.641 13.2293 113.592 13.2293L108.219 13.3973V10.7656L114.686 10.6027C114.686 10.6027 117.746 10.4732 119.457 11.8211C120.65 12.7637 121.443 14.2626 121.443 16.8421V30.2902L113.636 30.4577C113.636 30.4577 110.101 30.4702 108.32 29.7536C106.584 29.0513 105.637 27.1242 105.637 24.4493C105.637 21.8676 106.432 20.3681 107.625 19.4261C109.336 18.0765 112.394 18.2099 112.394 18.2099H114.888V20.5021H113.489C112.442 20.5021 111.365 20.6946 110.766 21.4463C110.208 22.1481 109.909 22.7579 109.909 24.1189C109.909 25.9057 110.258 26.7023 111.103 27.3099C111.85 27.851 113.187 27.9685 114.679 27.9685L117.371 27.8055V17.1771ZM186.067 17.1771C186.067 15.8161 185.726 14.9712 185.166 14.2626C184.562 13.5103 183.337 13.2293 182.297 13.2293L176.926 13.3973V10.7656L183.387 10.6027C183.387 10.6027 186.446 10.4732 188.154 11.8211C189.348 12.7637 190.145 14.2626 190.145 16.8421V30.2902L182.337 30.4577C182.337 30.4577 178.798 30.4702 177.021 29.7536C175.284 29.0513 174.334 27.1242 174.334 24.4493C174.334 21.8676 175.136 20.3681 176.322 19.4261C178.031 18.0765 181.096 18.2099 181.096 18.2099H183.588V20.5021H182.187C181.146 20.5021 180.062 20.6946 179.47 21.4463C178.909 22.1481 178.609 22.7579 178.609 24.1189C178.609 25.9057 178.96 26.7023 179.802 27.3099C180.547 27.851 181.891 27.9685 183.383 27.9685L186.068 27.8055L186.067 17.1771ZM260.379 30.6661C260.901 30.6673 261.419 30.5658 261.902 30.3676C262.385 30.1693 262.824 29.8781 263.194 29.5108C263.564 29.1434 263.857 28.7071 264.057 28.2268C264.256 27.7465 264.359 27.2317 264.358 26.712C264.359 26.1921 264.257 25.6771 264.057 25.1967C263.857 24.7163 263.564 24.2799 263.194 23.9128C262.824 23.545 262.386 23.2536 261.902 23.0552C261.419 22.8569 260.901 22.7557 260.379 22.7573C258.195 22.7573 256.402 24.5311 256.402 26.712C256.402 27.7669 256.812 28.7617 257.571 29.5112C257.939 29.8778 258.377 30.1685 258.859 30.3667C259.341 30.5648 259.857 30.6666 260.379 30.6661ZM257.07 26.712C257.07 25.833 257.418 25.0063 258.04 24.3857C258.347 24.0793 258.711 23.8361 259.112 23.6702C259.514 23.5043 259.944 23.4188 260.379 23.4188C261.263 23.4188 262.096 23.7652 262.72 24.3857C263.028 24.6908 263.272 25.0533 263.439 25.4525C263.605 25.8517 263.691 26.2798 263.691 26.712C263.691 28.5261 262.208 30.0052 260.379 30.0052C259.944 30.005 259.514 29.9196 259.113 29.754C258.711 29.5884 258.347 29.3457 258.04 29.0399C257.732 28.7345 257.488 28.3717 257.321 27.9722C257.155 27.5727 257.069 27.1444 257.069 26.712" fill="white"/>
<path d="M262.343 28.5486C262.283 28.5259 262.238 28.4578 262.213 28.3556C262.188 28.2462 262.176 28.1347 262.174 28.0228L262.156 27.4545C262.147 27.1876 262.09 26.9968 261.994 26.8696C261.933 26.7845 261.84 26.7163 261.732 26.6528C261.864 26.5664 261.982 26.4625 262.067 26.3314C262.179 26.1542 262.238 25.9305 262.238 25.6586C262.238 25.1379 262.017 24.7705 261.587 24.578C261.358 24.4758 261.083 24.4304 260.746 24.4304H258.689V28.8336H259.455V27.0281H260.664C260.883 27.0281 261.047 27.0508 261.14 27.0922C261.297 27.1689 261.381 27.325 261.391 27.5635L261.425 28.2675C261.434 28.4396 261.443 28.548 261.457 28.6116C261.477 28.6798 261.488 28.7337 261.514 28.7791L261.545 28.8336H262.399V28.5753L262.342 28.548L262.343 28.5486ZM261.457 25.7131C261.457 25.9595 261.393 26.123 261.27 26.2133C261.129 26.3064 260.933 26.3581 260.687 26.3581H259.455V25.1135H260.762C260.937 25.1135 261.083 25.1379 261.188 25.1879C261.37 25.2787 261.457 25.4547 261.457 25.7131Z" fill="white"/>
</g>
<defs>
<clipPath id="clip0_306_1618">
<rect width="53" height="40" fill="white" transform="translate(0.744141 0.5)"/>
</clipPath>
<clipPath id="clip1_306_1618">
<rect width="187" height="36" fill="white" transform="translate(77.7441 4.5)"/>
</clipPath>
</defs>
</svg>
