<svg width="167" height="41" viewBox="0 0 167 41" fill="none" xmlns="http://www.w3.org/2000/svg">
<path d="M166.255 8.90138H165.471V6.94214L164.687 8.23524H164.294L163.902 6.94214V8.90138H163.118V5.57068H163.902L164.687 7.37318L165.471 5.57068H166.255V8.90138ZM162.725 6.15845H161.941V8.90138H161.156V6.15845H160.372V5.57068H162.725V6.15845ZM158.411 18.5016H156.057V10.9782L153.312 15.8762H151.743L149.39 10.9782V18.5016H146.644V5.57068H149.39L152.527 12.5455L156.057 5.57068H158.411V18.5016ZM143.114 18.5016H140.368L139.584 16.2289H135.269L134.485 18.5016H131.739L136.446 5.57068H138.407L143.114 18.5016ZM139.192 14.0737L137.623 9.37159L136.054 14.0737H139.192ZM127.817 18.5016H119.188V5.57068H127.817V7.80421H121.933V10.8606H127.032V13.0941H121.933V16.2681H127.817V18.5016ZM115.266 7.80421H112.128V18.5016H109.382V7.80421H105.852V5.57068H115.266V7.80421ZM102.714 14.7007C102.714 17.3653 100.361 18.58 98.0074 18.6192C95.6541 18.6192 94.0851 18.0706 93.3007 16.895L94.8696 15.2885C95.6541 15.9938 96.4385 16.3856 98.0074 16.3856C99.5764 16.3856 100.361 15.8371 100.361 14.7791C100.361 13.7995 99.5764 13.3684 98.7919 13.2117L97.223 13.0158C94.8696 12.7023 93.6929 11.4876 93.6929 9.37159C93.6929 8.19605 94.0851 7.25562 94.8696 6.51111C95.6541 5.80579 96.8307 5.45313 98.0074 5.45313C99.9686 5.45313 101.145 5.96253 102.322 6.94214L100.753 8.54871C99.9686 7.96094 99.1841 7.64747 98.0074 7.64747C96.8307 7.72584 96.0463 8.15687 96.0463 9.29322C96.0463 10.1945 96.8307 10.6255 97.6152 10.7039L99.1841 10.939C101.145 11.1741 102.714 12.5064 102.714 14.7007ZM82.7105 12.3496C82.7105 15.8762 79.5726 18.7367 76.0425 18.7367C72.5125 18.7367 69.7669 15.8762 69.7669 12.3496C69.7669 8.86219 72.5125 6.00171 76.0425 6.00171C79.5726 6.00171 82.7105 8.86219 82.7105 12.3496ZM76.0425 0.515869C69.7669 0.515869 64.2757 5.76661 64.2757 12.3104L56.8233 22.9295C56.431 22.8899 56.431 22.8511 56.0388 22.8511C54.4699 22.8511 52.901 23.3213 51.3321 24.105L17.8356 10.6255C16.9335 6.62867 13.3642 3.65064 9.1281 3.65064C4.26445 3.65064 0.255859 7.64747 0.255859 12.5455C0.255859 17.4044 4.26445 21.4013 9.1281 21.4013C10.8151 21.4013 12.3444 20.9702 13.6784 20.1474L47.4102 33.6269C48.1946 37.7412 51.7247 40.4842 56.0392 40.4842C60.3537 40.4842 64.276 36.9576 64.6683 32.6081L76.0429 24.3009C82.7109 24.3009 88.2021 18.9718 88.2021 12.3888C88.2017 5.84498 82.7105 0.515869 76.0425 0.515869ZM76.0425 4.43433C80.7493 4.43433 84.2794 8.00013 84.2794 12.3888C84.2794 16.8167 80.7493 20.3825 76.0425 20.3825C71.728 20.3825 68.198 16.8167 68.198 12.3888C68.198 8.00013 71.728 4.43433 76.0425 4.43433ZM9.1281 6.00171C11.6384 6.00171 13.8349 7.37318 14.9335 9.44996L11.6776 8.15687C9.04966 7.21644 6.14716 8.50953 5.08813 11.0957C4.06834 13.7211 5.24503 16.6599 7.79452 17.7963L10.5401 18.8935C10.1083 19.011 9.638 19.0502 9.12771 19.0502C5.51959 19.0502 2.61669 16.1505 2.61669 12.5455C2.61708 8.90138 5.51959 6.00171 9.1281 6.00171ZM56.0388 25.2022C59.5689 25.2022 62.3145 28.141 62.3145 31.746C62.3145 35.3902 59.5689 38.1331 56.0388 38.1331C53.2932 38.1331 51.3321 36.9576 50.1554 34.8024C51.3321 35.3902 52.1165 35.782 53.2932 36.1739C56.0388 37.3494 58.7844 35.782 59.9611 33.2742C60.7456 30.8451 59.9611 27.5145 57.2155 26.4565L54.4699 25.3593C54.8621 25.2805 55.6466 25.2022 56.0388 25.2022Z" fill="white"/>
</svg>
