<svg width="133" height="41" viewBox="0 0 133 41" fill="none" xmlns="http://www.w3.org/2000/svg">
<g clip-path="url(#clip0_306_1602)">
<path d="M129.513 32.6456L121.49 21.8668L113.588 32.6456H110.356L119.929 19.5926L111.187 7.73486H114.418L121.484 17.4347L128.672 7.73486H131.903L123.166 19.5926L132.744 32.6456H129.513ZM85.8 20.5499C85.3188 20.0686 84.7211 19.7089 84.1235 19.4709C85.9217 18.5137 87.117 16.5991 87.117 14.4412C87.117 12.8863 86.5193 7.73486 79.0937 7.73486H69.0342V18.5137H65.681C65.1998 19.1113 64.2425 20.4282 63.8828 21.0312H69.0342V32.6456H79.0937C84.6047 32.6456 87.9579 29.8901 87.9579 25.3416C87.9526 23.4218 87.2386 21.7452 85.8 20.5499ZM71.7897 10.3687H79.0937C81.1299 10.3687 84.3615 10.85 84.3615 14.3196C84.3615 16.9534 82.4469 18.5137 79.0937 18.5137H71.7897V10.3687ZM79.0937 30.0117H71.7897V20.9095H79.0937C81.8492 20.9095 85.2024 21.6288 85.2024 25.22C85.2024 29.4141 81.3679 30.0117 79.0937 30.0117Z" fill="white"/>
<path d="M101.01 7.13794C94.0654 7.13794 89.152 12.5273 89.152 20.191C89.152 27.8546 94.0601 33.1223 101.01 33.1223C107.959 33.1223 112.867 27.7329 112.867 20.191C112.862 12.5273 108.07 7.13794 101.01 7.13794ZM101.01 30.4885C95.742 30.4885 92.0291 26.178 92.0291 20.191C92.0291 14.0823 95.742 9.89346 101.01 9.89346C106.277 9.89346 109.99 14.2039 109.99 20.191C110.107 26.2996 106.394 30.4885 101.01 30.4885ZM67.5944 32.6463L58.1326 19.5933L66.7535 7.73559H63.5219L56.456 17.4354L49.39 7.73559H46.0368L54.7794 19.5933L45.2012 32.6463H48.5543L56.456 21.8675L64.3576 32.6463H67.5944Z" fill="white"/>
<path d="M40.8811 20.4974C40.8811 31.5141 31.7789 40.4947 20.6405 40.4947C9.50205 40.4947 0.521484 31.5194 0.521484 20.4974C0.521484 9.47527 9.62369 0.5 20.7621 0.5C31.9006 0.5 40.8811 9.48056 40.8811 20.4974Z" fill="#666666"/>
<path d="M40.8811 20.4987C40.8811 31.5155 31.7789 40.4961 20.6405 40.4961C9.50205 40.4961 0.521484 31.5155 0.521484 20.4987C0.521484 9.48195 9.62369 0.496094 20.7621 0.496094C31.9006 0.496094 40.8811 9.48195 40.8811 20.4987Z" fill="url(#paint0_radial_306_1602)"/>
<path d="M40.8811 20.4987C40.8811 31.5155 31.7789 40.4961 20.6405 40.4961C9.50205 40.4961 0.521484 31.5155 0.521484 20.4987C0.521484 9.48195 9.62369 0.496094 20.7621 0.496094C31.9006 0.496094 40.8811 9.48195 40.8811 20.4987Z" fill="url(#paint1_radial_306_1602)"/>
<path d="M40.8811 20.4987C40.8811 31.5155 31.7789 40.4961 20.6405 40.4961C9.50205 40.4961 0.521484 31.5155 0.521484 20.4987C0.521484 9.48195 9.62369 0.496094 20.7621 0.496094C31.9006 0.496094 40.8811 9.48195 40.8811 20.4987Z" fill="url(#paint2_radial_306_1602)"/>
<path d="M15.6319 11.792C13.4582 14.5475 4.04924 25.4585 4.89547 32.8894C5.4984 33.6087 6.10134 34.328 6.82592 34.9257C6.70427 29.293 13.4635 23.179 18.6519 18.5036L15.6319 11.792Z" fill="#3F3F3F"/>
<path d="M15.6319 11.792C13.4582 14.5475 4.04924 25.4585 4.89547 32.8894C5.4984 33.6087 6.10134 34.328 6.82592 34.9257C6.70427 29.293 13.4635 23.179 18.6519 18.5036L15.6319 11.792Z" fill="url(#paint3_linear_306_1602)"/>
<path d="M10.1584 3.56239C8.95249 4.28168 7.86297 5.11733 6.90039 5.95826C10.1584 6.55591 13.2947 9.43308 15.1035 11.7126C16.6743 14.1085 17.5152 16.2663 18.6047 18.5459C19.3293 17.9482 20.0539 17.3506 20.9001 16.626V6.79391C18.3615 5.36062 14.5005 3.44074 10.1584 3.56239Z" fill="#303030"/>
<path d="M10.1584 3.55804C8.95249 4.27733 7.86826 5.11827 6.90039 5.95391C10.1584 6.55156 13.2947 9.42872 15.1035 11.7082C16.6743 14.1041 17.5152 16.262 18.6047 18.5415C19.3293 17.9439 20.0539 17.3409 20.8948 16.6216V6.79485C18.3615 5.35627 14.5005 3.44168 10.1584 3.55804Z" fill="url(#paint4_linear_306_1602)"/>
<path d="M25.8609 11.7979C28.0241 14.5587 37.4066 25.475 36.5604 32.9112C35.9575 33.6305 35.3598 34.3497 34.6352 34.9527C34.7569 29.3147 28.0241 23.1954 22.8516 18.5201L25.8609 11.7979Z" fill="#3F3F3F"/>
<path d="M25.8615 11.7979C28.0247 14.5587 37.4072 25.475 36.5663 32.9112C35.9633 33.6305 35.3657 34.3497 34.6411 34.9527C34.7627 29.3147 28.0247 23.1954 22.8574 18.5201L25.8615 11.7979Z" fill="url(#paint5_linear_306_1602)"/>
<path d="M31.3127 3.55653C32.5133 4.27582 33.5975 5.11676 34.5601 5.95769C31.3127 6.55534 28.187 9.43779 26.3835 11.7173C24.8233 14.1185 23.977 16.2763 22.8981 18.5559C22.1735 17.9529 21.4542 17.3553 20.6133 16.636V6.79863C23.0197 5.35476 26.9864 3.43489 31.3127 3.55653Z" fill="#303030"/>
<path d="M31.318 3.55653C32.5186 4.27582 33.6028 5.11676 34.5654 5.95769C31.318 6.55534 28.187 9.43779 26.3835 11.7173C24.818 14.1185 23.977 16.2763 22.8981 18.5559C22.1788 17.9582 21.4542 17.3553 20.6133 16.636V6.79863C23.0197 5.35476 26.9864 3.43489 31.318 3.55653Z" fill="url(#paint6_linear_306_1602)"/>
</g>
<defs>
<radialGradient id="paint0_radial_306_1602" cx="0" cy="0" r="1" gradientUnits="userSpaceOnUse" gradientTransform="translate(20.3842 18.3727) rotate(90) scale(29.1033 25.8433)">
<stop stop-color="white"/>
<stop offset="1" stop-color="white" stop-opacity="0"/>
</radialGradient>
<radialGradient id="paint1_radial_306_1602" cx="0" cy="0" r="1" gradientUnits="userSpaceOnUse" gradientTransform="translate(20.3842 18.3727) rotate(90) scale(29.1033 25.8433)">
<stop stop-color="white"/>
<stop offset="1" stop-color="white" stop-opacity="0"/>
</radialGradient>
<radialGradient id="paint2_radial_306_1602" cx="0" cy="0" r="1" gradientUnits="userSpaceOnUse" gradientTransform="translate(20.3842 18.3727) rotate(90) scale(29.1033 25.8433)">
<stop stop-color="white"/>
<stop offset="1" stop-color="white" stop-opacity="0"/>
</radialGradient>
<linearGradient id="paint3_linear_306_1602" x1="13.4549" y1="26.0406" x2="8.71988" y2="20.4113" gradientUnits="userSpaceOnUse">
<stop stop-color="#585858"/>
<stop offset="1" stop-color="#8C8C8C" stop-opacity="0"/>
</linearGradient>
<linearGradient id="paint4_linear_306_1602" x1="13.2464" y1="12.7169" x2="17.5552" y2="3.02604" gradientUnits="userSpaceOnUse">
<stop stop-color="#484848"/>
<stop offset="1" stop-color="#727272" stop-opacity="0"/>
</linearGradient>
<linearGradient id="paint5_linear_306_1602" x1="30.7137" y1="23.9176" x2="25.9638" y2="18.3174" gradientUnits="userSpaceOnUse">
<stop stop-color="#2E2E2E"/>
<stop offset="1" stop-color="#858585" stop-opacity="0"/>
</linearGradient>
<linearGradient id="paint6_linear_306_1602" x1="25.1381" y1="10.3449" x2="28.8488" y2="4.26859" gradientUnits="userSpaceOnUse">
<stop stop-color="#3A3A3A"/>
<stop offset="1" stop-color="#BEBEBE" stop-opacity="0"/>
</linearGradient>
<clipPath id="clip0_306_1602">
<rect width="132.223" height="40" fill="white" transform="translate(0.521484 0.5)"/>
</clipPath>
</defs>
</svg>
